<svg xmlns="http://www.w3.org/2000/svg" width="1200" height="630" viewBox="0 0 1200 630">
  <rect width="1200" height="630" fill="#2D6FFF"/>
  <defs>
    <pattern id="grid" width="48" height="48" patternUnits="userSpaceOnUse">
      <path d="M 48 0 L 0 0 0 48" fill="none" stroke="#ffffff" stroke-opacity="0.12" stroke-width="1"/>
    </pattern>
  </defs>
  <rect width="1200" height="630" fill="url(#grid)"/>

  <rect x="70" y="72" width="188" height="50" fill="#111111"/>
  <text x="94" y="105" fill="#FFD600" font-family="monospace" font-size="22" font-weight="700">PORTFOLIO</text>

  <text x="70" y="238" fill="#ffffff" font-family="monospace" font-size="92" font-weight="900">Ahamed</text>
  <text x="70" y="342" fill="#FFD600" font-family="monospace" font-size="92" font-weight="900">Meyan</text>

  <text x="76" y="414" fill="#ffffff" fill-opacity="0.9" font-family="monospace" font-size="30" font-weight="700">
    Software Engineer
  </text>
  <text x="76" y="462" fill="#ffffff" fill-opacity="0.72" font-family="monospace" font-size="24">
    Backend systems | open source | practical products
  </text>

  <rect x="76" y="515" width="266" height="58" fill="#FFD600" stroke="#111111" stroke-width="6"/>
  <text x="108" y="552" fill="#111111" font-family="monospace" font-size="22" font-weight="900">VIEW PORTFOLIO</text>

  <rect x="783" y="96" width="310" height="410" fill="#111111" stroke="#111111" stroke-width="8"/>
  <rect x="807" y="120" width="262" height="362" fill="#050505"/>
  <ellipse cx="938" cy="300" rx="150" ry="205" fill="#101426" stroke="#6048ff" stroke-width="3"/>
  <circle cx="937" cy="250" r="54" fill="#2b2b2b"/>
  <path d="M850 444 C882 353 995 353 1027 444 Z" fill="#282828"/>
  <rect x="766" y="462" width="200" height="58" fill="#00C853" stroke="#111111" stroke-width="6"/>
  <text x="790" y="498" fill="#111111" font-family="monospace" font-size="18" font-weight="900">CHENNAI, INDIA</text>

  <path d="M1073 95 C1100 62 1148 91 1128 132 C1107 174 1055 161 1038 128 C1019 91 1053 66 1073 95Z" fill="#F5BDD4" stroke="#111111" stroke-width="6"/>
</svg>
